# Blender v2.75 (sub 0) OBJ File: 'robot.blend'
# www.blender.org
mtllib robot_rightArm.mtl
o RightArm_Cube.005
v -1.200511 1.489612 0.900000
v -1.200511 1.700217 0.900000
v -1.200511 1.489612 -0.600000
v -1.200511 1.700217 -0.600000
v -0.989906 1.489612 0.900000
v -0.989906 1.700217 0.900000
v -0.989906 1.489612 -0.600000
v -0.989906 1.700217 -0.600000
v -0.974950 1.489612 0.900000
v -0.974950 1.700217 0.900000
v -0.974950 1.489612 -0.600000
v -0.974950 1.700217 -0.600000
v -0.764345 1.489612 0.900000
v -0.764345 1.700217 0.900000
v -0.764345 1.489612 -0.600000
v -0.764345 1.700217 -0.600000
v -1.105303 1.710746 0.900000
v -1.105303 1.921352 0.900000
v -1.105303 1.710746 -0.600000
v -1.105303 1.921352 -0.600000
v -0.894697 1.710746 0.900000
v -0.894697 1.921352 0.900000
v -0.894697 1.710746 -0.600000
v -0.894697 1.921352 -0.600000
vn -1.000000 0.000000 0.000000
vn 0.000000 0.000000 -1.000000
vn 1.000000 0.000000 0.000000
vn 0.000000 0.000000 1.000000
vn 0.000000 -1.000000 0.000000
vn 0.000000 1.000000 0.000000
usemtl None
s off
f 4//1 3//1 1//1
f 8//2 7//2 3//2
f 6//3 5//3 7//3
f 2//4 1//4 5//4
f 3//5 7//5 5//5
f 8//6 4//6 2//6
f 12//1 11//1 9//1
f 16//2 15//2 11//2
f 14//3 13//3 15//3
f 10//4 9//4 13//4
f 11//5 15//5 13//5
f 16//6 12//6 10//6
f 20//1 19//1 17//1
f 24//2 23//2 19//2
f 22//3 21//3 23//3
f 18//4 17//4 21//4
f 19//5 23//5 21//5
f 24//6 20//6 18//6
f 2//1 4//1 1//1
f 4//2 8//2 3//2
f 8//3 6//3 7//3
f 6//4 2//4 5//4
f 1//5 3//5 5//5
f 6//6 8//6 2//6
f 10//1 12//1 9//1
f 12//2 16//2 11//2
f 16//3 14//3 15//3
f 14//4 10//4 13//4
f 9//5 11//5 13//5
f 14//6 16//6 10//6
f 18//1 20//1 17//1
f 20//2 24//2 19//2
f 24//3 22//3 23//3
f 22//4 18//4 21//4
f 17//5 19//5 21//5
f 22//6 24//6 18//6
